<svg id="图层_1" data-name="图层 1" xmlns="http://www.w3.org/2000/svg" viewBox="0 0 883.85 225"><defs><style>.cls-1{fill:#426df2;}.cls-2{fill:#688cfb;}</style></defs><title>logo</title><path class="cls-1" d="M690.77,110.32c-21.54.2-43.09.12-64.64,0-1.38,0-3.86,1.17-4-1-.11-1.78,1.83-3.39,3.77-4a13.81,13.81,0,0,1,3.87-.16c17.66,0,35.33-.31,53,.16,6.08.17,9.36-1.58,11.64-7.2,1.63-4,.4-4.08-2.92-4.06-16.53.11-33.05,0-49.58,0h-6.62c2-3.87,4.27-5.22,8-5.16,13.44.24,26.9-.18,40.34.24,5.28.16,8.34-1.16,10.21-6.29,1.75-4.82,2.17-4.68-3.2-4.68H649.33c2.69-5.06,2.69-5.1,7.13-5.12,7.46,0,14.91,0,22.36,0,12.26,0,12.26,0,14.76-11.83a.81.81,0,0,0,0-.53c-11.34,0-22.63-.14-33.93,0-23.31.34-46.62,1-69.94,1.19-6,.06-3.34,4.1-3.83,6.71-.59,3.12.38,4.6,4,4.52,11.34-.23,22.68-.1,34-.07,1.49,0,3.13-.42,4.54.59-1.12,3.6-3.32,4.63-6.69,4.58-10.7-.17-21.39,0-32.08-.12-2.81,0-4,.51-4,3.68.06,7.21-.14,7.21,7.15,7.21h22.33c-1.5,3.92-3.55,5.28-7,5.12-5-.23-10-.06-15.06-.06-7.63,0-7.5,0-7.42,7.49,0,2.73.79,3.74,3.58,3.6,3.9-.19,7.83,0,12.16,0-1.64,3.75-3.37,5.8-6.93,5.26-2.21-.33-2.93.94-2.64,2.89.48,3.19-.87,5.5-3.06,7.71s-3.79,4.63-6.19,7.64a25.65,25.65,0,0,0,3.63,0c4.93-.92,5.85,1.39,5.7,5.88-.33,10,.09,20.07-.19,30.1-.12,4,.87,5.21,5,5.17,22.84-.2,50.06-.52,72.88.1l25.87-16.83c-.15-12.63-.21-25.26,0-37.88C695.66,111.39,694.65,110.29,690.77,110.32ZM673,159q-14.81,0-29.62,0c-9.55,0-19.1,0-28.65,0-1.79,0-4.43,1.17-4.52-2.52-.09-4,2.75-2.83,4.72-2.84,15.22-.07,30.43,0,45.65-.05,3.39,0,9.18-5.92,8.74-9.12-.3-2.18-2.28-1.28-3.51-1.29-12-.08-23.95,0-35.93,0H614.34c-2.08,0-4.17.47-4.18-3s1.9-3.09,4.08-3.09q22.83,0,45.65,0c4.06,0,9.37-5.05,9.42-8.93,0-2.26-1.76-1.47-2.81-1.49-5.17-.09-10.35,0-15.53,0-12.14,0-24.28,0-36.42,0-1.65,0-4.23,1.12-4.29-2.23,0-2.76,1.18-4.16,4.08-4.15q29.63.06,59.24,0c2.06,0,2.87.61,2.85,2.75-.07,11.16-.09,22.32,0,33.48C676.47,159.12,674.88,159,673,159Z"/><path class="cls-1" d="M534.54,131.87c-3.3,0-4.57-.71-4.43-4.24.12-3.17.22-5.26,4.35-4.91,2.15.18,5.19,1.49,6.58-1.25,1.65-3.28,4.36-7.09,3.32-10.27-.7-2.15-5.53-.4-8.49-.78-.32,0-.67.06-1,0-1.55-.39-4.27,1.06-4.44-1.38-.24-3.36-2-7.64.92-10,4.25-3.52,7.61-7.86,11.8-11.37,1.69-1.43,1.91-3.2,1.89-5.23-.06-6.63-.17-13.28,0-19.91.1-3.08-.69-4.21-4-4.18q-30.14.21-60.27,0c-3,0-3.87.87-3.82,3.84.16,10.84.06,21.69.06,32.54v78.69c4.8-2,9.18-4,13.71-5.63,3.2-1.13,4.37-2.84,4.32-6.36-.2-16.68-.09-33.35-.09-50,0-12.91,0-12.91,13-12.57.49,0,1,0,1.46,0,1.56-.07,2.19.58,2.44,2.22,1.24,7.91.28,9.17-7.42,9.44-1.3,0-3.42-.78-3.58,1.31-.27,3.36-.75,7,.35,10.06.84,2.32,4.41,1,6.69.92,3.36-.18,3.94,1.19,4,4.21.11,3.66-.74,5.54-4.77,4.87-1.26-.21-2.6.09-3.88,0-2.69-.31-3.7.64-3.66,3.48q.21,16,0,32.05c-.05,2.95,1.18,3.47,3.75,3.42,6.8-.14,13.54.2,20.41,0,3.87-.1,6.47-1.7,9.61-3.52,10-5.77,12.53-14.09,11.56-25C544.08,132,544.79,131.77,534.54,131.87Zm-8.07,26.49H518V144.15a40.2,40.2,0,0,1,5.83,0c2.17.12,2.77,1,2.65,3C526.37,148.57,526.47,158.36,526.47,158.36ZM516.47,86h-5.82c-3.88,0-7.78-.24-11.64.07-3.55.27-4.27-1.16-4.25-4.42.06-10.08-.07-10.08,10.13-10.08,6,0,12,.19,18-.07,3.3-.15,4,1.07,4,4.14C526.83,86,527,86,516.47,86Z"/><path class="cls-1" d="M468.58,84c1.65.1,2.13-1.19,2.62-2.41l4.37-11c-2.55,0-4.34-.15-6.09,0-2.87.32-3.46-1-3.5-3.61-.14-8.83-.24-8.82-9.32-8.82-8.43,0-8.55,0-8.59,8.57,0,2.85-.62,4.17-3.75,3.88-2.73-.26-5.51.07-8.25-.09-2.39-.14-2.91.86-3,3.09-.5,10.29-.57,10.29,9.9,10.34.65,0,1.3.06,1.95,0,2.25-.23,3.08.67,3.15,3,.36,11.83.48,23.42-6.51,34-3.64,5.53-5.9,12-8.83,18.11,5.42,1,12-2,14.52,1.43,2.36,3.14.57,9.32.82,14.15.13,2.72-.81,3.57-3.57,3.63-8.42.18-8.42.3-8.39,8.79a17.92,17.92,0,0,1,0,1.94c-.23,2.21.56,3.06,2.94,3.23,6.22.44,11.78-.21,16.12-5.53,2.22-2.72,5.18-4.87,7.95-7.08a7.48,7.48,0,0,0,3-6.66c-.2-7.28.38-14.59-.17-21.83-.91-12,1-23.1,7.66-33.23.49-.74,1.13-1.62.65-2.68-8.73-.47-8.68-.46-8.24-8.25C466.11,85.19,466.29,83.82,468.58,84Z"/><path class="cls-1" d="M380.16,134.3a10.7,10.7,0,0,1-.16-8.79c4.63-12.07,8.94-24.26,13.58-36.32,1.11-2.9.59-3.77-2.44-3.66-3.72.14-7.46.2-11.17,0-3-.18-4.34,1-5.25,3.76-1.73,5.17-3.83,10.22-6,15.8-.76-1-1.38-1.45-1.47-2-1.91-11.6-9.57-13.46-19.62-12.08-3.06.42-4.52.37-2.8,4,2.31,4.79,4.15,9.82,6.2,14.74,2.78,6.71,7.37,13.3,7.85,20.17s-4.5,13.56-7.08,20.34-5.07,13.34-7.77,20.45c6,0,11.16-.1,16.33.05,2.32.07,3.43-.69,4.15-3,1.32-4.18,3-8.23,4.94-13.24,2,4.91,3.71,8.74,5.12,12.67.87,2.44,2,3.53,4.87,3.55,4.32,0,8.08,0,12.13,0,3.74,0,3.53-1.19,2.38-3.87C389.34,156,384.9,145.1,380.16,134.3Z"/><path class="cls-1" d="M843,149.66c-4.49-9.91-5.61-19.62-.75-29.71a45.15,45.15,0,0,0,2.67-8.79c1.65-6.7,4.75-13,4.31-20.26-.2-3.29-.94-4.51-4.39-4.43-8.9.21-17.8.07-26.7.07-6.33,0-6,0-6.43,6.19-.3,4.71.81,7,6,6.1a26.93,26.93,0,0,1,4.84,0c12.2,0,12.5.5,7.28,12-.06.13-.24.2-.91.75.11-6.23-3.94-6-8.13-5.73-2.57.16-5.16,0-8.26,0,2.72,9.24,5.15,17.77,7.79,26.24a10.32,10.32,0,0,1-.25,7c-3.3,8.94-6.4,17.95-9.72,26.88-1,2.56-.55,3.57,2.32,3.42a60.57,60.57,0,0,1,8.73,0c3.15.28,4.86-.89,5.47-4a20.28,20.28,0,0,1,1.2-3.68c.39-1,.38-2.59,1.67-2.68,1.77-.13,1.62,1.75,2,2.83,2.65,7.42,2.61,7.49,10.39,7.49,1.45,0,2.91-.08,4.37,0,2.51.13,3.1-.79,2.21-3.22C846.69,160.67,845.38,154.93,843,149.66Z"/><path class="cls-1" d="M327.72,150.05c4.36-3.52,10.3-6.1,8.33-13.55-.2-.78.26-1.4.92-2,2.92-2.83,3.09-7,4.7-10.44.51-1.11.52-2.5-1.19-2.39-3.18.21-3.41-1.76-4.86-4-2.25-3.54-7.33-.92-11.16-1.38-1.32-.16-4-1-3.93,1.32.17,4.87-3,4-5.78,4s-5.83,0-8.75,0c-1.53,0-3.15-.09-2.93-2.19.34-3.18-1.51-3.31-3.87-3.22-3.08.11-6.16,0-9.24,0-.92,0-2.47-.14-2.4,1,.26,3.64-1.33,4.83-4.77,4.63-1.2-.06-1.1,1.37-1.11,2.31,0,2.43.08,4.86,0,7.29-.11,2.13.37,3.5,2.88,3.18,3.07-.39,3.05,1.74,2.78,3.71-.54,3.92.59,6.85,4.17,8.9,1.8,1,3.2,2.72,4.92,3.92,2.78,1.95,3.16,3.39.06,5.71-5.56,4.18-10.75,8.84-16.85,13.93,3,0,4.74,0,6.52,0,8.57.32,17.22,1,23.33-7,1.34-1.75,2.75-.63,4.19.36,3.16,2.18,5.56,6,9.48,6.42,5.87.58,11.84.15,18.94.15C336.6,165.92,332,162,327.43,158S322.92,153.94,327.72,150.05Zm-8.55-10.43q-3,2.43-6.09,4.79a2.14,2.14,0,0,1-3.06,0c-.23-.22-.53-.39-.74-.63-2.2-2.51-7.86-4.73-6.24-9l8.57-.25s3.65-.09,5.26,0c1.17.09,2.79-.65,3.29,1.11A3.52,3.52,0,0,1,319.17,139.62Z"/><path class="cls-1" d="M814.49,73.3C820,73,825.41,72,830.88,71.53c13.55-1.25,13.56-1.21,16.85-15.25-1.34,0-2.3-.08-3.25,0-15.44,1.53-30.87,3.23-46.34,4.51-3.7.3-4.41,1.55-4.4,5,.13,30.25,0,60.5.14,90.75,0,4.24-2.07,10.44,1,12.21,2.81,1.61,7.68-2.48,11.66-4.46,2.29-1.13,3.09-2.27,3-4.72-.12-6.46.06-12.94.07-19.41,0-20.54.11-41.09-.09-61.63C809.56,74.65,810.84,73.5,814.49,73.3Z"/><path class="cls-1" d="M778.74,82c2.21-.08,5,1.34,6.51-1.65,1.83-3.73,4-7.34,5.12-11.81-5,0-9.65-.19-14.31.06-3.18.18-4.22-.86-4.2-4.06,0-6.68-.14-6.68-6.64-6.69h-1.94c-7.74.08-6.58-.64-6.46,6.34.06,3.29-.74,4.69-4.28,4.42-3.86-.3-7.77,0-11.64-.11-2.35-.08-3.37.45-3.48,3.15C737,82,736.88,82,747.24,82a22.67,22.67,0,0,0,3.4,0c4.67-.71,6.32.71,6.25,5.9-.33,24.08-.15,48.18-.15,72.27,0,11.41-.07,11.22,10.66,6.89,3.63-1.46,4.65-3.33,4.62-7.12-.18-23.77-.12-47.53-.08-71.3C772,81,771.1,82.25,778.74,82Z"/><path class="cls-1" d="M290.45,86c4.33,0,10-1.83,12.66.74,3,2.83.5,8.57,1,12.25,0,1.25,0,1.74,0,2.22.39,3.91-1.8,9.58,1.05,11.22,2.21,1.27,7.14-2.46,11-3.61,2.64-.79,3-2.4,2.95-4.73-.1-5,.05-10-.06-15,0-2.28.76-3.19,3.08-3.12,3.88.13,7.77,0,11.65,0,1.42,0,2.84.26,3.56-1.62,1.15-3,2.56-5.93,3.87-8.88.65-1.45.64-2.73-1.36-2.51-4.23.46-3.91-1.78-3.11-4.67.55-2,.77-4.12,1.15-6.18.22-1.24.16-2.34-1.49-2.31-3.7.07-7.71-.63-11,.6-2.18.81-1.63,4.9-2.28,7.52-.28,1.1-.49,2.2-.76,3.3a1.7,1.7,0,0,1-1.65,1.49c-1.28,0-1.59-.91-1.61-1.95a64.64,64.64,0,0,1,0-7.75c.47-4.27-.78-5.95-5.48-5.77-9.49.37-9.41.09-9.59,9.44,0,2,1.46,5.55-1.32,5.81-3.17.3-2.23-3.57-2.78-5.66-2.19-8.33.39-6.94-8.27-7.06-7-.1-6.94,0-5.63,7.14.51,2.77,2.31,6.38-3.23,6.16-1.24,0-1.17,1.24-1.31,2.2C280.07,85.17,280.76,85.94,290.45,86Z"/><path class="cls-1" d="M744.62,89.2c-3.15,0-4,.89-4.17,4.06-.84,19.53-1.93,39.06-2.93,58.59-.5,11.11-.5,11,10.57,11,3.11,0,4.1-.81,4.19-4,.53-19.87,1.31-39.74,2-59.6C754.61,89.07,754.59,89.2,744.62,89.2Z"/><path class="cls-1" d="M790.6,126.42h-2.49c0-9.36.12-18.72,0-28.09s-.27-9.14-9.82-9.12c-3.21,0-4.14,1-4,4.15.61,19.54,1,39.08,1.54,58.62.33,11,.45,10.89,11.35,10.79,3.14,0,3.64-1,3.58-3.92C790.48,148,790.6,137.22,790.6,126.42Z"/><path class="cls-1" d="M393,62c-6.95.14-13.9.08-20.85,0-1.21,0-3.71.63-2.94-1.74,1.25-3.89-1-3.45-3.35-3.43-3.71,0-7.43.08-11.15,0-2.05-.06-3.29.6-4,2.63q-3.44,9.83-7.12,19.54c-.9,2.36-.89,3.56,2.17,3.43,4.2-.17,8.4-.05,12.61,0,1.48,0,3.24.15,3.55-1.68.83-4.94,4.35-4.68,8-4.52,2.58.11,5.17,0,7.76,0H381c10.92,0,10.82,0,14.45-10.56C396.46,62.76,396,62,393,62Z"/><path class="cls-1" d="M284.49,100.08c-3.44,10.92-2.95,11.43,8.78,10a3.07,3.07,0,0,0,3-2.47c1.76-6,3.62-12,5.49-18.15-1-.1-1.57-.22-2.19-.23C288,88.88,288,88.88,284.49,100.08Z"/><path class="cls-1" d="M324.71,89.27a2.67,2.67,0,0,1-.49,0c-2-.23-2.49.57-1.92,2.5a107.33,107.33,0,0,1,3.22,12.13c.87,5,3.08,7.59,7.65,6.13,8.38,0,8.38,0,6.39-7-.4-1.4-.82-2.79-1.24-4.18C335.28,88.72,335.28,88.72,324.71,89.27Z"/><path class="cls-1" d="M222.69,64.62c0-5.16-1.33-8.28-6.28-9.66A10.26,10.26,0,0,0,215,53.73Q173.61,29.82,132.23,5.87c-2.67-1.55-4.63-1.17-7.1.27-14.95,8.73-30,17.2-44.95,26C67.25,39.76,53.9,46.68,41.36,55h0l-5.78,3.11a2.85,2.85,0,0,0-1,2.28V163.9a4.53,4.53,0,0,0,1,2.76c1.44,1.55,6.67,4,7.2,4.35q41.39,23.93,82.76,47.86c2.67,1.55,4.63,1.18,7.1-.27,15-8.72,30-17.26,45-26,13-7.55,25.88-15.23,38.81-22.85,5-1.38,6.32-4.49,6.28-9.66Q222.28,112.37,222.69,64.62Zm-2.35,95.28c0,3.58-.62,6.22-4,7.8-14.47,8.2-29,16.36-43.41,24.61-13.16,7.53-26.32,15.06-39.34,22.83a9.24,9.24,0,0,1-9.38.05c-26.11-15.24-52.32-30.3-78.51-45.4-1.38-.8-2.88-1.4-4.33-2.09h0c-3.34-1.58-4-4.22-4-7.8q.21-47.52,0-95.06c0-3.57.63-6.21,4-7.8h0c12.09-6.82,24.22-13.58,36.27-20.48,15.55-8.91,31.09-17.84,46.51-27a9.21,9.21,0,0,1,9.35,0q39.48,23,79.14,45.77a23.74,23.74,0,0,0,3.11,1.45c3.85,1.55,4.58,4.28,4.56,8.06Q220.13,112.38,220.34,159.9Z"/><path class="cls-1" d="M207.5,112.91c0,13.75-.08,27.51.07,41.26,0,3.06-.71,4.87-3.56,6.5q-36.21,20.72-72.18,41.84c-2.59,1.52-4.42,1.43-6.94,0q-36-21.08-72.18-41.86a6,6,0,0,1-3.49-6q.2-41.76,0-83.5c0-3.06,1.08-4.55,3.58-6Q89,44.27,125,23.2c2.58-1.51,4.42-1.42,6.94.05q36,21.07,72.17,41.87c2.55,1.46,3.54,3,3.5,6C207.4,85.07,207.5,99,207.5,112.91Zm-144.87-.54c0,11.34.14,22.67-.08,34-.07,3.49.94,5.51,4.06,7.29Q95.94,170.36,125,187.48c2.35,1.38,4.09,1.6,6.59.13q29.29-17.22,58.8-34.07c3-1.71,3.86-3.65,3.84-6.92-.12-22.5-.16-45,0-67.52,0-3.62-1.29-5.44-4.29-7.15Q160.9,55.33,132,38.35c-2.5-1.47-4.38-1.69-7-.13Q95.71,55.46,66.2,72.31c-2.79,1.59-3.7,3.41-3.64,6.55C62.75,90,62.63,101.2,62.63,112.37Z"/><path class="cls-1" d="M129.82,72.68c10.19,0,20.39,0,30.59,0,7.08,0,10.1,3,10.13,10.06q.08,24.73,0,49.48c0,6.9-3.23,10.23-10.06,10.26q-30.58.1-61.17,0c-6.87,0-10.1-3.32-10.13-10.18q-.09-24.74,0-49.48c0-7.1,3-10.09,10-10.14C109.43,72.63,119.62,72.68,129.82,72.68Zm-.2,64.18c9.71,0,19.42-.14,29.12.06,4.49.1,6.45-1.36,6.39-6.12q-.28-23.28,0-46.57c.06-4.76-1.9-6.16-6.39-6.13q-28.87.23-57.77,0c-4.49,0-6.45,1.37-6.39,6.13q.28,23.28,0,46.57c-.06,4.76,1.9,6.22,6.39,6.12C110.52,136.72,120.07,136.86,129.62,136.86Z"/><path class="cls-1" d="M129.84,148.52c8.25,0,16.5,0,24.75,0,2,0,4.26,0,4.25,2.7s-2.15,2.8-4.22,2.8h-49.5c-2.06,0-4.21-.24-4.24-2.77s2.15-2.74,4.21-2.73C113.34,148.54,121.59,148.52,129.84,148.52Z"/><path class="cls-2" d="M137.93,116.92c-3.52-.85-6.38-3.3-9.5-5.21-8.37-5.12-8.34-5.16-16.27.84-1.28,1-2.53,2-3.88,2.87s-2.88.91-3.88-.48a2.59,2.59,0,0,1,.62-3.84c.25-.19.56-.31.81-.51,16.38-13.09,11.23-12,27.65-2.06,3.65,2.2,6.36,2.8,9.73-.39,2.79-2.63,6.16-4.65,9.34-6.84a3,3,0,0,1,4,.09,2.51,2.51,0,0,1-.33,3.87c-5,3.82-10.09,7.46-15.23,11.06C140.27,116.82,139.13,116.71,137.93,116.92Z"/></svg>